<mxfile host="app.diagrams.net" modified="2021-05-24T15:47:37.283Z" agent="5.0 (Windows NT 10.0; Win64; x64) AppleWebKit/537.36 (KHTML, like Gecko) Chrome/90.0.4430.212 Safari/537.36 Edg/90.0.818.66" etag="wxnxdI1VSTrSg5wgbaaA" version="14.6.1" type="github">
  <diagram id="cvxg9Lm-vUqtapsxcO72" name="第 1 页">
    <mxGraphModel dx="813" dy="454" grid="1" gridSize="10" guides="1" tooltips="1" connect="1" arrows="1" fold="1" page="1" pageScale="1" pageWidth="827" pageHeight="1169" math="0" shadow="0">
      <root>
        <mxCell id="0" />
        <mxCell id="1" parent="0" />
        <mxCell id="KngwLaqn_i5Z9b0yXkX_-2" value="电话交换机B" style="whiteSpace=wrap;html=1;" vertex="1" parent="1">
          <mxGeometry x="210" y="350" width="120" height="60" as="geometry" />
        </mxCell>
        <mxCell id="KngwLaqn_i5Z9b0yXkX_-3" value="电话交换机A" style="whiteSpace=wrap;html=1;" vertex="1" parent="1">
          <mxGeometry x="330" y="190" width="120" height="60" as="geometry" />
        </mxCell>
        <mxCell id="KngwLaqn_i5Z9b0yXkX_-4" value="电话交换机C" style="whiteSpace=wrap;html=1;" vertex="1" parent="1">
          <mxGeometry x="450" y="350" width="120" height="60" as="geometry" />
        </mxCell>
        <mxCell id="KngwLaqn_i5Z9b0yXkX_-20" value="" style="endArrow=classic;html=1;entryX=0.25;entryY=0;entryDx=0;entryDy=0;" edge="1" parent="1" target="KngwLaqn_i5Z9b0yXkX_-2">
          <mxGeometry relative="1" as="geometry">
            <mxPoint x="330" y="240" as="sourcePoint" />
            <mxPoint x="190" y="350" as="targetPoint" />
          </mxGeometry>
        </mxCell>
        <mxCell id="KngwLaqn_i5Z9b0yXkX_-21" value="A的外线接B的内线" style="edgeLabel;resizable=0;html=1;align=center;verticalAlign=middle;rotation=0;fontStyle=0;" connectable="0" vertex="1" parent="KngwLaqn_i5Z9b0yXkX_-20">
          <mxGeometry relative="1" as="geometry">
            <mxPoint x="-5" y="-25" as="offset" />
          </mxGeometry>
        </mxCell>
        <mxCell id="KngwLaqn_i5Z9b0yXkX_-22" value="" style="endArrow=classic;html=1;" edge="1" parent="1">
          <mxGeometry relative="1" as="geometry">
            <mxPoint x="300" y="350" as="sourcePoint" />
            <mxPoint x="380" y="250" as="targetPoint" />
          </mxGeometry>
        </mxCell>
        <mxCell id="KngwLaqn_i5Z9b0yXkX_-23" value="B的外线接A的内线" style="edgeLabel;resizable=0;html=1;align=center;verticalAlign=middle;" connectable="0" vertex="1" parent="KngwLaqn_i5Z9b0yXkX_-22">
          <mxGeometry relative="1" as="geometry">
            <mxPoint x="-10" y="20" as="offset" />
          </mxGeometry>
        </mxCell>
        <mxCell id="KngwLaqn_i5Z9b0yXkX_-27" value="" style="endArrow=classic;html=1;" edge="1" parent="1">
          <mxGeometry relative="1" as="geometry">
            <mxPoint x="450" y="245" as="sourcePoint" />
            <mxPoint x="564" y="350" as="targetPoint" />
          </mxGeometry>
        </mxCell>
        <mxCell id="KngwLaqn_i5Z9b0yXkX_-28" value="A的外线接C的内线" style="edgeLabel;resizable=0;html=1;align=center;verticalAlign=middle;" connectable="0" vertex="1" parent="KngwLaqn_i5Z9b0yXkX_-27">
          <mxGeometry relative="1" as="geometry">
            <mxPoint x="33" y="27" as="offset" />
          </mxGeometry>
        </mxCell>
        <mxCell id="KngwLaqn_i5Z9b0yXkX_-29" value="" style="endArrow=classic;html=1;" edge="1" parent="1">
          <mxGeometry relative="1" as="geometry">
            <mxPoint x="500" y="350" as="sourcePoint" />
            <mxPoint x="400" y="250" as="targetPoint" />
          </mxGeometry>
        </mxCell>
        <mxCell id="KngwLaqn_i5Z9b0yXkX_-30" value="C的外线接A的内线" style="edgeLabel;resizable=0;html=1;align=center;verticalAlign=middle;" connectable="0" vertex="1" parent="KngwLaqn_i5Z9b0yXkX_-29">
          <mxGeometry relative="1" as="geometry">
            <mxPoint x="-20" y="-10" as="offset" />
          </mxGeometry>
        </mxCell>
        <mxCell id="KngwLaqn_i5Z9b0yXkX_-33" value="" style="endArrow=classic;html=1;exitX=0.999;exitY=0.181;exitDx=0;exitDy=0;exitPerimeter=0;" edge="1" parent="1" source="KngwLaqn_i5Z9b0yXkX_-2">
          <mxGeometry relative="1" as="geometry">
            <mxPoint x="350" y="360" as="sourcePoint" />
            <mxPoint x="450" y="360" as="targetPoint" />
          </mxGeometry>
        </mxCell>
        <mxCell id="KngwLaqn_i5Z9b0yXkX_-34" value="B的外线接C的内线" style="edgeLabel;resizable=0;html=1;align=center;verticalAlign=middle;" connectable="0" vertex="1" parent="KngwLaqn_i5Z9b0yXkX_-33">
          <mxGeometry relative="1" as="geometry">
            <mxPoint y="10" as="offset" />
          </mxGeometry>
        </mxCell>
        <mxCell id="KngwLaqn_i5Z9b0yXkX_-35" value="" style="endArrow=classic;html=1;entryX=1;entryY=0.833;entryDx=0;entryDy=0;entryPerimeter=0;" edge="1" parent="1" target="KngwLaqn_i5Z9b0yXkX_-2">
          <mxGeometry relative="1" as="geometry">
            <mxPoint x="450" y="400" as="sourcePoint" />
            <mxPoint x="340" y="400" as="targetPoint" />
          </mxGeometry>
        </mxCell>
        <mxCell id="KngwLaqn_i5Z9b0yXkX_-36" value="C的外线接B的内线" style="edgeLabel;resizable=0;html=1;align=center;verticalAlign=middle;" connectable="0" vertex="1" parent="KngwLaqn_i5Z9b0yXkX_-35">
          <mxGeometry relative="1" as="geometry">
            <mxPoint y="10" as="offset" />
          </mxGeometry>
        </mxCell>
      </root>
    </mxGraphModel>
  </diagram>
</mxfile>
